name processed_emg_signals
nRows=58
nColumns=7
 
endheader
time	LGLTMED	LRF	LADDLONG	LST	LTA	LGM
1.285	0.0219047060219751	0.0159953687542928	0.1831159068910053	0.0241731154580719	0.2081552580405517	0.0281859723852117
1.286	0.021948364744626	0.0159816186067789	0.1839875425148656	0.024155769332981	0.2085608652426364	0.0288455241290421
1.287	0.0219922741662967	0.015968855125024	0.184842874134483	0.0241389067334671	0.2089119001272535	0.029510777757868
1.288	0.0220363790740971	0.0159570271292057	0.1856812683733699	0.02412237484486	0.2092081042879594	0.0301818306806876
1.289	0.0220806256554775	0.0159460825986564	0.1865020901762754	0.0241060243156253	0.209449262524991	0.0308587913452613
1.29	0.0221249614747439	0.0159359688289191	0.187304703547503	0.0240897093667497	0.2096352032503581	0.0315417783127622
1.291	0.0221693354479466	0.0159266325888331	0.1880884722972142	0.0240732878923955	0.2097657988487516	0.0322309193345526
1.292	0.022213697816337	0.0159180202772672	0.1888527607966321	0.0240566215516769	0.2098409659925105	0.0329263504334825
1.293	0.0222580001185509	0.0159100780791293	0.1895969347430504	0.0240395758514913	0.2098606659085335	0.0336282149921432
1.294	0.0223021951616843	0.015902752120278	0.1903203619353678	0.0240220202203423	0.209824904594915	0.0343366628505334
1.295	0.022346236991349	0.0158959886209764	0.1910224130605579	0.0240038280731685	0.2097337329850911	0.0350518494155866
1.296	0.022390080860879	0.015889734047463	0.1917024624911298	0.0239848768672004	0.2095872470574975	0.0357739347849761
1.297	0.0224336831997716	0.0158839352612266	0.1923598890931831	0.0239650481488551	0.2093855878890235	0.0365030828875496
1.298	0.0224770015815694	0.0158785396655026	0.1929940770443391	0.0239442275916433	0.2091289416509505	0.0372394606426601
1.299	0.0225199946912791	0.0158734953485499	0.193604416660513	0.0239223050250304	0.2088175395466748	0.0379832371406194
1.3	0.0225626222925012	0.0158687512232424	0.1941903052303565	0.0238991744541583	0.2084516576912894	0.0387345828464176
1.301	0.0226048451943596	0.0158642571625767	0.1947511478560541	0.0238747340703964	0.2080316169339013	0.0394936688288107
1.302	0.0226466252183787	0.0158599641307828	0.1952863582991281	0.0238488862527271	0.2075577826241325	0.0402606660168413
1.303	0.0226879251654159	0.0158558243097382	0.1957953598297974	0.0238215375600597	0.2070305643244233	0.0410357444857129
1.304	0.0227287087828083	0.0158517912204925	0.1962775860783837	0.0237925987146996	0.2064504154696047	0.0418190727739047
1.305	0.022768940731886	0.0158478198396935	0.1967324818871317	0.0237619845772369	0.2058178329748249	0.0426108172332085
1.306	0.022808586555988	0.0158438667107347	0.1971595041607772	0.023729614113265	0.2051333567925753	0.0434111414132982
1.307	0.0228476126490882	0.0158398900494765	0.1975581227141622	0.0236954103523696	0.2043975694193162	0.0442202054822687
1.308	0.0228859862251194	0.0158358498443612	0.1979278211151611	0.0236593003399053	0.2036110953520009	0.0450381656844661
1.309	0.0229236752879967	0.0158317079507768	0.1982680975211699	0.0236212150821275	0.2027746004946868	0.045865173836783
1.31	0.0229606486023703	0.0158274281795201	0.1985784655074677	0.0235810894852695	0.2018887915151494	0.0467013768645483
1.311	0.0229968756650923	0.0158229763792021	0.1988584548859395	0.0235388622891909	0.200954415151093	0.0475469163779629
1.312	0.0230323266773911	0.0158183205124576	0.1991076125128356	0.0234944759962692	0.1999722574651567	0.0484019282900127
1.313	0.0230669725177617	0.0158134307258216	0.1993255030843731	0.0234478767962315	0.1989431430476471	0.0492665424766064
1.314	0.0231007847155589	0.0158082794131329	0.1995117099190035	0.0233990144876522	0.1978679341659375	0.0501408824795745
1.315	0.0231337354252621	0.0158028412723234	0.1996658357249986	0.0233478423968289	0.1967475298596698	0.0510250652530397
1.316	0.0231657974013433	0.0157970933554407	0.1997875033517272	0.0232943172947749	0.1955828649812057	0.0519192009535421
1.317	0.023196943973695	0.0157910151117418	0.1998763565227323	0.0232383993130061	0.1943749091810512	0.0528233927741472
1.318	0.0232271490235402	0.0157845884236813	0.1999320605486211	0.0231800518588537	0.1931246658384318	0.0537377368226979
1.319	0.0232563869597989	0.0157777976356517	0.1999543030178422	0.0231192415309523	0.1918331709376907	0.0546623220442358
1.32	0.023284632695887	0.015770629575302	0.1999427944636451	0.0230559380355576	0.1905014918917969	0.0555972301874781
1.321	0.0233118616269145	0.0157630735673395	0.1998972690056497	0.0229901141042788	0.1891307263146443	0.0565425358151051
1.322	0.023338049607269	0.01575512143973	0.1998174849647151	0.0229217454137446	0.1877220007439705	0.0574983063574647
1.323	0.0233631729285698	0.0157467675222799	0.1997032254500935	0.0228508105076674	0.1862764693166581	0.0584646022090987
1.324	0.0233872082980125	0.0157380086376339	0.199554298918226	0.0227772907216727	0.1847953123980181	0.0594414768674154
1.325	0.0234101328171032	0.0157288440848102	0.1993705397028845	0.0227011701112242	0.1832797351665746	0.0604289771126378
1.326	0.02343192396085	0.0157192756154402	0.1991518085165475	0.0226224353828821	0.1817309661558068	0.0614271432280657
1.327	0.0234525595574359	0.015709307402959	0.1988979929230008	0.0225410758291087	0.1801502557544063	0.0624360092595608
1.328	0.0234720177684193	0.0156989460049962	0.1986090077810804	0.0224570832668095	0.1785388746667457	0.0634556033130292
1.329	0.023490277069574	0.0156882003192549	0.198284795659221	0.0223704519797946	0.1768981123357325	0.0644859478885818
1.33	0.0235073162324983	0.0156770815331468	0.1979253272202014	0.0222811786653693	0.1752292753309024	0.065527060249956
1.331	0.0235231143072353	0.0156656030674959	0.1975306015753834	0.0221892623852735	0.1735336857053131	0.0665789528277081
1.332	0.0235376506060974	0.0156537805146167	0.1971006466076892	0.0220947045212004	0.1718126793254091	0.0676416336545779
1.333	0.0235509046890019	0.0156416315711012	0.1966355192627032	0.0219975087350912	0.1700676041784007	0.0687151068313352
1.334	0.0235628563505562	0.0156291759656659	0.1961353058073659	0.0218976809344021	0.1682998186618796	0.0697993730213135
1.335	0.0235734856092199	0.0156164353823455	0.1956001220558374	0.0217952292425254	0.1665106898604634	0.0708944299716917
1.336	0.0235827726988378	0.0156034333793432	0.195030113562007	0.0216901639745251	0.1647015918142191	0.0720002730595281
1.337	0.0235906980628415	0.0155901953037549	0.1944254557778358	0.021582497618423	0.1628739037836774	0.0731168958605164
1.338	0.0235972423513579	0.0155767482024403	0.1937863541762449	0.0214722448222321	0.1610290085161988	0.0742442907383086
1.339	0.0236023864214311	0.0155631207292814	0.1931130443367731	0.0213594223870284	0.1591682905184606	0.0753824494522194
1.34	0.0236061113404981	0.0155493430491058	0.1924057919917633	0.021244049266271	0.1572931343398407	0.0765313637808839
1.341	0.0236083983931758	0.0155354467385763	0.1916648930305677	0.0211261465716251	0.1554049228713217	0.0776910261592919
1.342	0.0236092290913803	0.0155214646843916	0.1908906734590252	0.0210057375854555	0.1535050356644744	0.0788614303264201
